<svg height="250" width="250" xmlns="http://www.w3.org/2000/svg"><path d="m0 0c.804375.09023437 1.60875.18046875 2.4375.2734375 8.91068417 1.3922944 13.6884235 7.34207865 18.875 14.2890625 4.72424775 6.60244767 7.33138896 11.32449906 6.6875 19.4375-.65257873 1.672233-1.31867549 3.33927151-2 5-.07646165 2.3320802-.09143299 4.66845878 0 7 4.38442736 2.67996782 8.80081584 2.33327688 13.80859375 2.4609375 4.49684128.75956438 6.89941782 2.77224071 9.5625 6.4140625 3.35188726 6.67921856 5.41995035 13.63323163 7.39819336 20.81640625 4.87846487 17.36672534 17.10479098 29.23512108 32.62915039 38.0546875 10.3842219 5.00500785 21.34469057 4.83696436 32.6015625 4.25390625.98613281-.04640625 1.97226563-.0928125 2.98828125-.140625 7.64734319-.92695069 12.49728747-5.82555929 18.01171875-10.859375 6.79107505-6 6.79107505-6 9-6 .226875-.53625.45375-1.0725.6875-1.625 1.3125-2.375 1.3125-2.375 3.6640625-5.0859375 2.68484304-3.18178432 4.50688813-6.54053885 6.3359375-10.2890625.87205078-1.7634375.87205078-1.7634375 1.76171875-3.5625 3.69190313-8.18356361 5.44328296-16.41359947 2.67578125-25.22265625-3.28393121-6.98915624-7.75516271-13.14109773-14.375-17.21484375-7.07671775-1.88712473-14.22773599-2.26680568-20.7578125 1.4453125-4.21963967 3.2929737-7.60025344 7.44039712-10.9921875 11.5546875-.99-.33-1.98-.66-3-1-2.09339142-4.51731834-2.72560845-9.08304803-2-14 2.27844806-6.0068176 5.61748401-8.7662688 11.22265625-11.828125 6.34563265-2.67748213 12.30296205-3.00652515 18.83984375-.796875 8.94813456 4.1342647 15.47080223 11.96154965 21.83203125 19.265625 2.10868293 2.43951827 2.10868293 2.43951827 4.69140625 4.74609375 5.38446311 5.82881201 7.67358671 14.59169292 7.9765625 22.42578125-.79021794 16.44092326-6.19103059 34.52906911-18.4375 45.93359375-7.43481856 6.01081097-16.37628729 9.27491448-25.88671875 9.5-1.67932617.04930664-1.67932617.04930664-3.39257813.09960937-2.33585172.06068825-4.67179283.11803756-7.0078125.171875-5.76026525.17475333-11.00992913.62684358-16.59204101 2.03051758-11.33157205 2.28011087-26.04103786 2.14197301-36.24584961-3.5480957-.69480469-.36222656-1.38960938-.72445312-2.10546875-1.09765625-2.07832106-1.18588919-3.97178761-2.47851563-5.89453125-3.90234375-1.07701172-.79470703-1.07701172-.79470703-2.17578125-1.60546875-11.15042766-9.03203898-17.99903119-22.72075937-22.3984375-36.13671875-4.2265462-12.84498322-8.7372912-22.06410667-18.703125-31.5078125-2.59439824-2.63557917-4.75205776-5.57021571-6.94921875-8.5390625-5.93903536-7.40417183-12.99757371-10.59613136-21.40234375-14.66210938-6.46651955-3.23325977-11.05320056-5.91304174-14.37109375-12.54882812-.50868542-3.12478189-.53240903-5.1658347 1.19921875-7.87890625 6.16770343-7.44163714 10.53310001-7.40547349 19.80078125-6.12109375z" fill="#8887c1" transform="translate(37 116)"/><path d="m0 0c5.69553096 4.79086322 8.55122183 11.69284286 11.5625 18.3125.9171276 1.97565111 1.83509017 3.95091483 2.75390625 5.92578125.44206787.96325195.88413574 1.92650391 1.33959961 2.91894531 1.3061475 2.76272144 2.70882898 5.45592375 4.13305664 8.15917969 1.93028428 3.82586083 2.87214806 6.9716299 3.0234375 11.30859375.04769531 1.02351563.09539062 2.04703125.14453125 3.1015625.01417969.75023437.02835938 1.50046875.04296875 2.2734375.58007812-.020625 1.16015625-.04125 1.7578125-.0625 3.55996054.09399236 6.24215166.19135767 9 2.59375 3.17164985 4.18458514 5.54314328 8.81453373 8.02734375 13.42578125 2.76618923 4.65182305 6.52587757 7.49752997 11.21484375 10.04296875-1.11440652 3.34321955-1.97472343 4.06019619-4.625 6.25-6.51856239 5.58404282-11.94439631 11.28988668-17.0625 18.1875-.4638208.62068359-.9276416 1.24136719-1.40551758 1.88085938-3.17099751 4.36119189-5.60173548 8.80661021-7.90698242 13.68164062-.66 0-1.32 0-2 0-1.05811956-7.5343212-1.70441905-14.11630944 2-21 2.4375-2.75 2.4375-2.75 5-5 3.01548098-3.09152889 3.01548098-3.09152889 4-7-.680625-.226875-1.36125-.45375-2.0625-.6875-7.00620484-3.13043195-10.73990846-6.53386947-13.9296875-13.62109375-2.09141518-5.58521341-3.55290034-10.4331852-2.1328125-16.31640625.37125-.78375.7425-1.5675 1.125-2.375-.88751953-.23783203-.88751953-.23783203-1.79296875-.48046875-8.13325864-2.40150051-11.68555908-6.42285971-16.20703125-13.51953125-1.17948381-2.2745303-2.32468099-4.56712132-3.4375-6.875-1.93355844-4.00152979-3.92599059-7.80317422-6.5-11.4375-2.25441949-3.49772061-2.79812688-6.42858924-2.5546875-10.57421875 1.02526151-4.40211491 3.83747098-6.84466525 7.3671875-9.55078125 3.47850264-.92078011 5.66819705-.57570086 9.125.4375z" fill="#57c0b3" transform="translate(66 35)"/><path d="m0 0c4.55997938 2.70221 6.57180672 5.44428469 8.33496094 10.39990234 1.77034545 6.92150481 1.8700241 14.25882093 2.39355468 21.35986328 1.09974185 13.84475287 1.09974185 13.84475287 8.27148438 25.24023438 4.22444411 10.28046538 5.33549505 25.01447617 4 36-2.23693461 4.68783689-2.23693461 4.68783689-5.75 6.125-4.62872492-.17802788-7.0916536-1.79593217-10.25-5.125-1.85589267-2.82587141-2.88905297-5.81694953-4-9-.24669434-.66854004-.49338867-1.33708008-.74755859-2.02587891-.8540667-2.3180369-1.68176976-4.64406384-2.50244141-6.97412109-.40617554-1.12088013-.40617554-1.12088013-.82055664-2.2644043-2.1258922-6.27354009-3.05961094-12.34509295-.92944336-18.7355957-.78375-.37125-1.5675-.7425-2.375-1.125-3.34990145-2.39278675-3.64386612-3.91791501-4.625-7.875-.01348773-2.35495754.05422219-4.7112782.1875-7.0625.10302863-5.54727824-.48073092-9.4751864-2.6875-14.5625-2.81293664-6.50993907-3.70077452-12.33905674-2.5-19.375 3.29866632-5.63965533 7.9300937-6.30604686 14-5z" fill="#dddaed" transform="translate(117 5)"/><path d="m0 0c3.78696193.45443543 4.79426305 1.43999792 7.125 4.375 4.72378265 9.4475653 1.86062809 30.91896303-1 41-1.38671875 2.35546875-1.38671875 2.35546875-3 4-.99 0-1.98 0-3 0 .48533203.90878906.48533203.90878906.98046875 1.8359375 1.47992271 4.59286357 1.35971069 8.99209486 1.33203125 13.7890625-.00491455.98532715-.0098291 1.9706543-.01489258 2.98583984-.2538163 15.73661082-.2538163 15.73661082-5.48510742 22.01416016-3.90031608 1.9068212-6.42725721 2.375-10.8125 2.375-3.59829613-1.8773719-4.71863574-3.34348339-6.3125-7.0625-1.97506933-11.31176071-.78156919-24.60811759 4.9140625-34.8046875 1.38072202-1.83878146 2.76046682-3.52214133 4.3984375-5.1328125-1.20381448-2.49361571-2.45428722-4.68143083-4-7-.64698962-6.46138316 1.10243774-12.34849715 2.75-18.5625.25265625-1.01513672.5053125-2.03027344.765625-3.07617188 4.12615673-15.79286487 4.12615673-15.79286487 11.359375-16.73632812z" fill="#0ab7d5" transform="translate(178.875 11.625)"/><path d="m0 0c15.91736578.4483765 33.04047982 8.80614332 44.234375 19.98046875 5.75119885 6.90381514 7.45767012 12.85617771 7.26171875 21.80078125-.37109375 2.46875-.37109375 2.46875-2.37109375 4.46875-1.92578125-.0546875-1.92578125-.0546875-4-1-1.80862656-2.54351861-3.23333717-5.20878339-4.73046875-7.9453125-5.5844329-7.51639677-13.59983507-11.56301576-21.95703125-15.3671875-.91072266-.42861328-1.82144531-.85722656-2.75976562-1.29882812-17.85424967-8.3112375-30.19848069-4.82455298-48.17773438 1.11132812-2.87611933.93208016-5.75386041 1.85885439-8.63290405 2.78186035-1.77943023.57230998-3.55689662 1.15077127-5.33209229 1.73608399-.798685.26026977-1.59736999.52053955-2.42025757.78869628-.70025299.23094361-1.40050598.46188721-2.12197876.69982911-1.86776733.49353027-1.86776733.49353027-4.86776733.49353027 3.12271399-9.65202505 11.64404864-15.08250724 20-20 11.69348747-5.91099366 22.97000352-7.41741958 35.875-8.25z" fill="#cf6df2" transform="translate(164.875 106.75)"/><path d="m0 0c4.09406026 1.60456044 6.75745985 4.53237067 9.6875 7.6875.49822266.50466797.99644531 1.00933594 1.50976562 1.52929688 3.45614393 3.70937564 4.73291334 6.53393007 4.80273438 11.78320312-2 2-2 2-4.125 2.6875-2.80674094 1.28133825-4.12410987 2.40064502-6.3125 4.5-7.46956169 6.76221683-17.55992335 11.52672455-27.5625 12.8125-.71285156.10828125-1.42570312.2165625-2.16015625.328125-13.06947938 1.75181734-26.7983392 1.64016078-37.83984375-6.328125-10.33937052-8.39393633-10.33937052-8.39393633-11.87890625-12.13671875-.20098427-3.09256437.9011844-4.56657201 2.87890625-6.86328125 2.75-.8125 2.75-.8125 6 0 1.59375 1.66015625 1.59375 1.66015625 3.25 3.75 4.45986308 5.42104046 8.77471196 7.72319096 15.81591797 8.46875 17.66393587 1.21375553 31.80044347-3.37469456 46.93408203-12.21875.1250806-2.44001984.1250806-2.44001984 0-5-.495-.474375-.99-.94875-1.5-1.4375-1.5-1.5625-1.5-1.5625-1.8125-4.625.3125-2.9375.3125-2.9375 2.3125-4.9375z" fill="#d06df2" transform="translate(177 171)"/><path d="m0 0c2.75288069 2.89218308 3.49684314 5.10711326 3.625 9.0625-.19627165 7.04708672-3.64154133 11.36839273-7.625 16.9375-4.51919563 6.92145645-7.52724591 13.01776604-9.265625 21.10546875-2.13853503 8.42901308-6.32095608 14.49959362-13.171875 19.76953125-3.34346952 1.46786467-5.09233482 1.15866622-8.5625.125-2.3125-1.125-2.3125-1.125-4-3-1.79088874-5.48459677-.611529-9.36064475 1.6328125-14.4375 3.49326631-6.54737915 7.77272084-12.03522714 14.3671875-15.5625h2c.020625-1.155.04125-2.31.0625-3.5 1.12759225-10.16443874 6.77591392-22.20538137 13.9375-29.5 2.5745284-1.2872642 4.14708645-1.34791629 7-1z" fill="#b2d0c1" transform="translate(230 44)"/><path d="m0 0c4.22365437 3.13630377 7.2646282 6.5949638 9.25 11.5.3125 3.5.3125 3.5 0 6-2.25.75-2.25.75-5 1-2.0625-1.875-2.0625-1.875-4-4-6.43175741-2.15748824-13.80442771-1.50205804-20 1-2.89014387 2.50479136-4.88061039 4.82091558-7 8-2.9375-.375-2.9375-.375-6-1-1.40900631-2.81801261-1.24148446-4.87220127-1-8 3.42423769-7.22282935 8.89878579-12.44282985 16-16 6.3490328-1.97635262 11.99362138-2.04608299 17.75 1.5z" fill="#8988c1" transform="translate(128.75 143.5)"/><path d="m0 0 2 1c-.92961422 1.15224028-1.8690125 2.29659176-2.8125 3.4375-.78310547.95712891-.78310547.95712891-1.58203125 1.93359375-1.60546875 1.62890625-1.60546875 1.62890625-4.60546875 2.62890625 1.35021826-4.41889613 3.26115668-6.34345343 7-9z" fill="#908fc3" transform="translate(161 142)"/><path d="m0 0c2.15377564 2.62198774 3.40072174 4.64404172 4 8-3-1-3-1-4.25-3.4375-.75-2.5625-.75-2.5625.25-4.5625z" fill="#70c6bb" transform="translate(75 51)"/></svg>